<svg width="46" height="48" viewBox="0 0 46 48" fill="none" xmlns="http://www.w3.org/2000/svg">
<rect width="46" height="48" fill="#888888"/>
<g clip-path="url(#clip0)">
<rect x="-668" y="-849" width="1280" height="933" fill="#F2F2F2"/>
<g filter="url(#filter0_d)">
<rect x="-628" y="-849" width="1200" height="933" fill="white"/>
</g>
<rect x="-628" y="-36" width="1200" height="120" fill="white"/>
<rect width="46" height="48" fill="#81B3D2"/>
<path fill-rule="evenodd" clip-rule="evenodd" d="M16 16H30C31.65 16 33 17.35 33 19V29C33 30.65 31.65 32 30 32H16C14.35 32 13 30.65 13 29V19C13 17.35 14.35 16 16 16ZM19.027 20.002V27.998L28.014 24L19.027 20.002Z" fill="white"/>
</g>
<defs>
<filter id="filter0_d" x="-643" y="-859" width="1230" height="963" filterUnits="userSpaceOnUse" color-interpolation-filters="sRGB">
<feFlood flood-opacity="0" result="BackgroundImageFix"/>
<feColorMatrix in="SourceAlpha" type="matrix" values="0 0 0 0 0 0 0 0 0 0 0 0 0 0 0 0 0 0 127 0"/>
<feOffset dy="5"/>
<feGaussianBlur stdDeviation="7.5"/>
<feColorMatrix type="matrix" values="0 0 0 0 0 0 0 0 0 0.00392157 0 0 0 0 0.00392157 0 0 0 0.2 0"/>
<feBlend mode="normal" in2="BackgroundImageFix" result="effect1_dropShadow"/>
<feBlend mode="normal" in="SourceGraphic" in2="effect1_dropShadow" result="shape"/>
</filter>
<clipPath id="clip0">
<rect x="-668" y="-849" width="1280" height="933" fill="white"/>
</clipPath>
</defs>
</svg>
